<mxfile host="app.diagrams.net" modified="2024-08-14T04:37:19.892Z" agent="Mozilla/5.0 (Windows NT 10.0; Win64; x64) AppleWebKit/537.36 (KHTML, like Gecko) Chrome/127.0.0.0 Safari/537.36" version="24.6.3" etag="DS3JMPrxlZ8WDhKx0Nan" type="github">
  <diagram name="Page-1" id="JNwGurjBket5JEVdD5aA">
    <mxGraphModel>
      <root>
        <mxCell id="0" />
        <mxCell id="1" parent="0" />
      </root>
    </mxGraphModel>
  </diagram>
</mxfile>
